<mxfile host="app.diagrams.net" modified="2022-09-07T02:19:09.631Z" agent="5.0 (Windows NT 10.0; Win64; x64) AppleWebKit/537.36 (KHTML, like Gecko) Chrome/105.0.0.0 Safari/537.36 Edg/105.0.1343.27" etag="T0DCTJK8OL0M_O2MvxB1" version="20.2.8" type="github">
  <diagram id="kIxsnDEzaFE8jGhAG0Tv" name="第 1 页">
    <mxGraphModel dx="569" dy="305" grid="1" gridSize="10" guides="1" tooltips="1" connect="1" arrows="1" fold="1" page="1" pageScale="1" pageWidth="1200" pageHeight="1920" math="0" shadow="0">
      <root>
        <mxCell id="0" />
        <mxCell id="1" parent="0" />
        <mxCell id="9VyTqNnY38J_3XrKxKob-4" value="" style="edgeStyle=orthogonalEdgeStyle;rounded=0;orthogonalLoop=1;jettySize=auto;html=1;" edge="1" parent="1" source="9VyTqNnY38J_3XrKxKob-1" target="9VyTqNnY38J_3XrKxKob-3">
          <mxGeometry relative="1" as="geometry" />
        </mxCell>
        <mxCell id="9VyTqNnY38J_3XrKxKob-1" value="train_net_da.py" style="rounded=1;whiteSpace=wrap;html=1;" vertex="1" parent="1">
          <mxGeometry x="340" y="90" width="140" height="50" as="geometry" />
        </mxCell>
        <mxCell id="9VyTqNnY38J_3XrKxKob-6" value="" style="edgeStyle=orthogonalEdgeStyle;rounded=0;orthogonalLoop=1;jettySize=auto;html=1;fontColor=#FF8000;" edge="1" parent="1" source="9VyTqNnY38J_3XrKxKob-3" target="9VyTqNnY38J_3XrKxKob-5">
          <mxGeometry relative="1" as="geometry" />
        </mxCell>
        <mxCell id="9VyTqNnY38J_3XrKxKob-3" value="backbone = build_backbone(cfg).to(device)&lt;br&gt;&lt;font color=&quot;#ff8000&quot;&gt;backnone 为 ResNet50 + FPN[p1-p7]&lt;/font&gt;" style="whiteSpace=wrap;html=1;rounded=1;" vertex="1" parent="1">
          <mxGeometry x="262.5" y="160" width="295" height="60" as="geometry" />
        </mxCell>
        <mxCell id="9VyTqNnY38J_3XrKxKob-8" value="" style="edgeStyle=orthogonalEdgeStyle;rounded=0;orthogonalLoop=1;jettySize=auto;html=1;fontColor=#FF8000;" edge="1" parent="1" source="9VyTqNnY38J_3XrKxKob-5" target="9VyTqNnY38J_3XrKxKob-7">
          <mxGeometry relative="1" as="geometry" />
        </mxCell>
        <mxCell id="9VyTqNnY38J_3XrKxKob-5" value="middle_head = build_middle_head(cfg, backbone.out_channels)&lt;br&gt;&lt;font color=&quot;#ff8000&quot;&gt;建立图结构&lt;/font&gt;" style="whiteSpace=wrap;html=1;rounded=1;fillColor=#f5f5f5;strokeColor=#666666;fontColor=#333333;" vertex="1" parent="1">
          <mxGeometry x="262.5" y="250" width="295" height="60" as="geometry" />
        </mxCell>
        <mxCell id="9VyTqNnY38J_3XrKxKob-10" value="" style="edgeStyle=orthogonalEdgeStyle;rounded=0;orthogonalLoop=1;jettySize=auto;html=1;fontColor=#FF8000;" edge="1" parent="1" source="9VyTqNnY38J_3XrKxKob-7" target="9VyTqNnY38J_3XrKxKob-9">
          <mxGeometry relative="1" as="geometry" />
        </mxCell>
        <mxCell id="9VyTqNnY38J_3XrKxKob-7" value="fcos_core modeling rpn fcos graph_matching_head.py 69行&lt;br&gt;&amp;nbsp;class GModule(torch.nn.Module):" style="whiteSpace=wrap;html=1;rounded=1;fillColor=#f5f5f5;strokeColor=#666666;fontColor=#333333;" vertex="1" parent="1">
          <mxGeometry x="647.5" y="250" width="325" height="60" as="geometry" />
        </mxCell>
        <mxCell id="9VyTqNnY38J_3XrKxKob-12" value="" style="edgeStyle=orthogonalEdgeStyle;rounded=0;orthogonalLoop=1;jettySize=auto;html=1;fontColor=#FF8000;" edge="1" parent="1" source="9VyTqNnY38J_3XrKxKob-9" target="9VyTqNnY38J_3XrKxKob-11">
          <mxGeometry relative="1" as="geometry" />
        </mxCell>
        <mxCell id="9VyTqNnY38J_3XrKxKob-9" value="fcos_core modeling rpn fcos graph_matching_head.py 69行&lt;br&gt;&amp;nbsp;class GModule(torch.nn.Module):" style="whiteSpace=wrap;html=1;rounded=1;fillColor=#f5f5f5;strokeColor=#666666;fontColor=#333333;" vertex="1" parent="1">
          <mxGeometry x="645" y="360" width="330" height="60" as="geometry" />
        </mxCell>
        <mxCell id="9VyTqNnY38J_3XrKxKob-14" value="" style="edgeStyle=orthogonalEdgeStyle;rounded=0;orthogonalLoop=1;jettySize=auto;html=1;fontColor=#FF8000;" edge="1" parent="1" source="9VyTqNnY38J_3XrKxKob-11" target="9VyTqNnY38J_3XrKxKob-13">
          <mxGeometry relative="1" as="geometry" />
        </mxCell>
        <mxCell id="9VyTqNnY38J_3XrKxKob-11" value="fcos_core modeling rpn fcos graph_matching_head.py109行&amp;nbsp;&lt;br&gt;make_prototype_evaluator(self.cfg)&lt;br&gt;主要是设置一下每个类别需要分裂成多少个原型（100个）" style="whiteSpace=wrap;html=1;rounded=1;fillColor=#f5f5f5;strokeColor=#666666;fontColor=#333333;" vertex="1" parent="1">
          <mxGeometry x="645" y="450" width="330" height="60" as="geometry" />
        </mxCell>
        <mxCell id="9VyTqNnY38J_3XrKxKob-13" value="fcos_core modeling rpn fcos graph_matching_head.py&lt;br&gt;109行 make_prototype_evaluator(self.cfg)&lt;br&gt;主要是设置一下每个类别需要分裂成多少个原型（100个）" style="whiteSpace=wrap;html=1;rounded=1;fillColor=#f5f5f5;strokeColor=#666666;fontColor=#333333;" vertex="1" parent="1">
          <mxGeometry x="650" y="540" width="320" height="60" as="geometry" />
        </mxCell>
      </root>
    </mxGraphModel>
  </diagram>
</mxfile>
